<svg xmlns="http://www.w3.org/2000/svg" xmlns:xlink="http://www.w3.org/1999/xlink" width="500" zoomAndPan="magnify" viewBox="0 0 375 374.999991" height="500" preserveAspectRatio="xMidYMid meet" version="1.0"><defs><g/></defs><g fill="#f9b80c" fill-opacity="1"><g transform="translate(84.8882, 201.047593)"><g><path d="M 28.09375 -6.738281 C 37.460938 -50.800781 37.527344 -51.539062 37.527344 -52.214844 C 37.527344 -56.59375 33.753906 -56.59375 27.960938 -56.59375 L 15.359375 -56.59375 C 14.621094 -56.59375 13.878906 -55.988281 13.742188 -55.246094 L 2.289062 -1.347656 C 2.289062 -0.605469 2.492188 0 3.367188 0 L 15.96875 0 C 22.703125 0 26.679688 0 28.09375 -6.738281 Z M 22.90625 -47.902344 L 26.140625 -47.902344 L 17.785156 -8.691406 L 14.550781 -8.691406 Z M 22.90625 -47.902344 "/></g></g></g><g fill="#f9b80c" fill-opacity="1"><g transform="translate(116.957112, 201.047593)"><g><path d="M 15.359375 -56.59375 C 14.621094 -56.59375 13.878906 -55.988281 13.742188 -55.246094 C 2.289062 -1.210938 2.222656 -1.078125 2.222656 -1.011719 C 2.222656 -0.402344 2.761719 0 3.367188 0 L 11.386719 0 C 12.128906 0 12.800781 -0.605469 13.003906 -1.347656 L 24.457031 -55.515625 C 24.457031 -56.121094 24.050781 -56.59375 23.378906 -56.59375 Z M 15.359375 -56.59375 "/></g></g></g><g fill="#f9b80c" fill-opacity="1"><g transform="translate(135.080221, 201.047593)"><g><path d="M 18.59375 0 C 19.808594 0 23.242188 -0.0664062 24.253906 -4.714844 C 29.308594 -28.5 29.375 -28.96875 29.375 -29.441406 C 29.375 -32.539062 26.613281 -32.609375 25.535156 -32.609375 L 19.605469 -32.609375 L 22.90625 -47.902344 L 32.808594 -47.902344 C 33.550781 -47.902344 34.292969 -48.507812 34.425781 -49.25 L 35.707031 -55.515625 C 35.707031 -56.121094 35.304688 -56.59375 34.628906 -56.59375 L 18.664062 -56.59375 C 17.449219 -56.59375 14.011719 -56.527344 13.003906 -51.945312 C 7.882812 -27.691406 7.816406 -27.21875 7.816406 -26.746094 C 7.816406 -23.648438 10.578125 -23.582031 11.65625 -23.582031 L 17.585938 -23.582031 L 14.550781 -9.5 L 5.324219 -9.5 C 4.582031 -9.5 3.90625 -8.894531 3.707031 -8.152344 C 2.289062 -1.210938 2.222656 -1.078125 2.222656 -1.011719 C 2.222656 -0.402344 2.761719 0 3.367188 0 Z M 18.59375 0 "/></g></g></g><g fill="#f9b80c" fill-opacity="1"><g transform="translate(164.45429, 201.047593)"><g><path d="M 13.003906 -51.875 C 2.828125 -4.175781 2.828125 -3.636719 2.828125 -3.234375 C 2.828125 0 5.660156 0 6.738281 0 L 24.726562 0 C 25.46875 0 26.140625 -0.605469 26.34375 -1.347656 L 27.554688 -7.34375 L 27.554688 -7.613281 C 27.554688 -8.21875 27.152344 -8.691406 26.476562 -8.691406 L 14.550781 -8.691406 L 22.90625 -47.902344 L 34.15625 -47.902344 C 34.898438 -47.902344 35.640625 -48.507812 35.773438 -49.25 L 37.121094 -55.515625 C 37.121094 -56.121094 36.71875 -56.59375 36.042969 -56.59375 L 18.730469 -56.59375 C 17.515625 -56.59375 14.011719 -56.59375 13.003906 -51.875 Z M 13.003906 -51.875 "/></g></g></g><g fill="#f9b80c" fill-opacity="1"><g transform="translate(194.838918, 201.047593)"><g/></g></g><g fill="#f9b80c" fill-opacity="1"><g transform="translate(215.050533, 201.047593)"><g><path d="M 34.023438 -33.347656 C 38.066406 -52.484375 38.132812 -52.953125 38.132812 -53.425781 C 38.132812 -56.59375 35.304688 -56.59375 34.226562 -56.59375 L 15.359375 -56.59375 C 14.621094 -56.59375 13.878906 -55.988281 13.742188 -55.246094 C 2.289062 -1.210938 2.222656 -1.078125 2.222656 -1.011719 C 2.222656 -0.402344 2.761719 0 3.367188 0 L 22.234375 0 C 23.445312 0 26.949219 0 27.960938 -4.714844 C 32.070312 -24.1875 32.136719 -24.726562 32.136719 -25.199219 C 32.136719 -28.296875 29.441406 -28.296875 28.363281 -28.296875 L 28.429688 -28.632812 C 29.644531 -28.632812 33.011719 -28.632812 34.023438 -33.347656 Z M 17.785156 -23.984375 L 21.019531 -23.984375 L 17.785156 -8.691406 L 14.550781 -8.691406 Z M 22.90625 -47.902344 L 26.140625 -47.902344 L 22.839844 -32.609375 L 19.605469 -32.609375 Z M 22.90625 -47.902344 "/></g></g></g><g fill="#f9b80c" fill-opacity="1"><g transform="translate(247.388936, 201.047593)"><g><path d="M 13.003906 -51.875 C 2.828125 -4.175781 2.828125 -3.636719 2.828125 -3.234375 C 2.828125 -0.0664062 5.59375 0 6.667969 0 L 22.097656 0 C 23.3125 0 26.746094 -0.0664062 27.757812 -4.714844 C 37.863281 -52.484375 37.929688 -52.953125 37.929688 -53.425781 C 37.929688 -56.527344 35.167969 -56.59375 34.089844 -56.59375 L 18.59375 -56.59375 C 17.316406 -56.59375 14.011719 -56.457031 13.003906 -51.875 Z M 17.785156 -8.691406 L 14.550781 -8.691406 L 22.90625 -47.902344 L 26.140625 -47.902344 Z M 17.785156 -8.691406 "/></g></g></g><g fill="#f9b80c" fill-opacity="1"><g transform="translate(279.525226, 201.047593)"><g><path d="M 2.898438 -67.371094 C 2.15625 -67.371094 1.414062 -66.765625 1.28125 -66.023438 L 0 -60.027344 C 0 -59.21875 0.402344 -58.679688 1.078125 -58.679688 L 14.484375 -58.679688 C 2.289062 -1.210938 2.222656 -1.078125 2.222656 -1.011719 C 2.222656 -0.402344 2.761719 0 3.367188 0 L 11.320312 0 C 12.058594 0 12.734375 -0.605469 12.933594 -1.347656 L 25.128906 -58.679688 L 38.535156 -58.679688 C 39.277344 -58.679688 40.019531 -59.289062 40.152344 -60.027344 L 41.433594 -66.292969 C 41.433594 -66.902344 41.03125 -67.371094 40.355469 -67.371094 Z M 2.898438 -67.371094 "/></g></g></g><path stroke-linecap="butt" transform="matrix(0.75, 0, 0, 0.75, 14.987422, 137.463229)" fill="none" stroke-linejoin="miter" d="M 127.881362 73.007367 C 140.36053 14.278196 140.449071 13.288613 140.449071 12.392779 C 140.449071 6.533404 135.423029 6.533404 127.704279 6.533404 L 110.907403 6.533404 C 109.917819 6.533404 108.933444 7.345904 108.756361 8.335487 L 93.469901 80.200076 C 93.469901 81.189659 93.75636 82.002159 94.917818 82.002159 L 111.714694 82.002159 C 120.688653 82.002159 125.995945 82.002159 127.881362 73.007367 Z M 120.969903 18.137571 L 125.271987 18.137571 L 114.131361 70.418825 L 109.829278 70.418825 Z M 153.662614 6.533404 C 152.678239 6.533404 151.688655 7.345904 151.51678 8.335487 C 136.230321 80.377159 136.141779 80.554242 136.141779 80.663617 C 136.141779 81.450076 136.865738 82.002159 137.678238 82.002159 L 148.355322 82.002159 C 149.344905 82.002159 150.240739 81.189659 150.527197 80.200076 L 165.792823 7.981321 C 165.792823 7.168821 165.245948 6.533404 164.344906 6.533404 Z M 182.126157 82.002159 C 183.751157 82.002159 188.334491 81.913617 189.693866 75.705284 C 196.428242 43.99174 196.511575 43.377156 196.511575 42.74174 C 196.511575 38.621948 192.829283 38.533406 191.381366 38.533406 L 183.485532 38.533406 L 187.896991 18.137571 L 201.094909 18.137571 C 202.084492 18.137571 203.068867 17.325071 203.24595 16.340696 L 204.959492 7.981321 C 204.959492 7.168821 204.407409 6.533404 203.511575 6.533404 L 182.235532 6.533404 C 180.615741 6.533404 176.032407 6.621946 174.693865 12.741738 C 167.850115 45.090698 167.761573 45.705282 167.761573 46.340698 C 167.761573 50.46049 171.443865 50.549032 172.891782 50.549032 L 180.787616 50.549032 L 176.751157 69.325075 L 164.449073 69.325075 C 163.464698 69.325075 162.563656 70.137575 162.277198 71.12195 C 160.391781 80.377159 160.303239 80.554242 160.303239 80.663617 C 160.303239 81.450076 161.027198 82.002159 161.839698 82.002159 Z M 213.855326 12.830279 C 200.282409 76.429242 200.282409 77.1532 200.282409 77.679242 C 200.282409 82.002159 204.053242 82.002159 205.501159 82.002159 L 229.475119 82.002159 C 230.459494 82.002159 231.360536 81.189659 231.641786 80.200076 L 233.245952 72.220908 L 233.245952 71.845908 C 233.245952 71.033408 232.719911 70.418825 231.818869 70.418825 L 215.917826 70.418825 L 227.058452 18.137571 L 242.058453 18.137571 C 243.048036 18.137571 244.032411 17.325071 244.209495 16.340696 L 246.00637 7.981321 C 246.00637 7.168821 245.459495 6.533404 244.563661 6.533404 L 221.490743 6.533404 C 219.865743 6.533404 215.193868 6.533404 213.855326 12.830279 Z M 309.324082 37.522989 C 314.719916 12.017779 314.808458 11.403196 314.808458 10.767779 C 314.808458 6.533404 311.037624 6.533404 309.610541 6.533404 L 284.454289 6.533404 C 283.469914 6.533404 282.480331 7.345904 282.308456 8.335487 C 267.021996 80.377159 266.933455 80.554242 266.933455 80.663617 C 266.933455 81.450076 267.657413 82.002159 268.469913 82.002159 L 293.620956 82.002159 C 295.225123 82.002159 299.896998 82.002159 301.256373 75.705284 C 306.73554 49.762574 306.824082 49.038615 306.824082 48.403198 C 306.824082 44.278198 303.230332 44.278198 301.782415 44.278198 L 301.89179 43.819865 C 303.490749 43.819865 307.985541 43.819865 309.324082 37.522989 Z M 287.678248 50.02299 L 292.001165 50.02299 L 287.678248 70.418825 L 283.381372 70.418825 Z M 294.521998 18.137571 L 298.818873 18.137571 L 294.433456 38.533406 L 290.115748 38.533406 Z M 324.438667 12.830279 C 310.860541 76.429242 310.860541 77.1532 310.860541 77.679242 C 310.860541 81.913617 314.548041 82.002159 315.995958 82.002159 L 336.542834 82.002159 C 338.167834 82.002159 342.751168 81.913617 344.110543 75.705284 C 357.574085 12.017779 357.662627 11.403196 357.662627 10.767779 C 357.662627 6.621946 353.980335 6.533404 352.553252 6.533404 L 331.870959 6.533404 C 330.183459 6.533404 325.777208 6.731321 324.438667 12.830279 Z M 330.798042 70.418825 L 326.501167 70.418825 L 337.641793 18.137571 L 341.938668 18.137571 Z M 353.798044 -7.83118 C 352.80846 -7.83118 351.824085 -7.01868 351.647002 -6.029097 L 349.938668 1.95007 C 349.938668 3.049029 350.485543 3.752154 351.386585 3.752154 L 369.261586 3.752154 C 352.985544 80.377159 352.897002 80.554242 352.897002 80.663617 C 352.897002 81.450076 353.62096 82.002159 354.43346 82.002159 L 365.027211 82.002159 C 366.011586 82.002159 366.912628 81.189659 367.178253 80.200076 L 383.449087 3.752154 L 401.324088 3.752154 C 402.308463 3.752154 403.298047 2.960487 403.469922 1.95007 L 405.183464 -6.383264 C 405.183464 -7.195764 404.636589 -7.83118 403.735547 -7.83118 Z M 353.798044 -7.83118 " stroke="#9d3be1" stroke-width="1.684431" stroke-opacity="1" stroke-miterlimit="4"/></svg>