<svg xmlns="http://www.w3.org/2000/svg" xmlns:xlink="http://www.w3.org/1999/xlink" width="422" zoomAndPan="magnify" viewBox="0 0 316.5 268.499992" height="358" preserveAspectRatio="xMidYMid meet" version="1.0"><defs><g/><clipPath id="e199c2d6f9"><path d="M 137.398438 115 L 141 115 L 141 126 L 137.398438 126 Z M 137.398438 115 " clip-rule="nonzero"/></clipPath><clipPath id="e30ad7369c"><path d="M 176 117 L 179.386719 117 L 179.386719 126 L 176 126 Z M 176 117 " clip-rule="nonzero"/></clipPath><clipPath id="410bd2f7b8"><path d="M 147 125 L 156 125 L 156 128.710938 L 147 128.710938 Z M 147 125 " clip-rule="nonzero"/></clipPath><clipPath id="395ff60ef0"><path d="M 161 125 L 169 125 L 169 128.710938 L 161 128.710938 Z M 161 125 " clip-rule="nonzero"/></clipPath><clipPath id="4eda3e2174"><path d="M 144 99.46875 L 148 99.46875 L 148 104 L 144 104 Z M 144 99.46875 " clip-rule="nonzero"/></clipPath><clipPath id="a95d3b4942"><path d="M 169 99.46875 L 173 99.46875 L 173 104 L 169 104 Z M 169 99.46875 " clip-rule="nonzero"/></clipPath></defs><g clip-path="url(#e199c2d6f9)"><path fill="#dbff22" d="M 137.40625 115.023438 L 140.746094 115.023438 L 140.746094 125.414062 L 137.40625 125.414062 Z M 137.40625 115.023438 " fill-opacity="1" fill-rule="nonzero"/></g><path fill="#dbff22" d="M 140.746094 111.066406 L 144.085938 111.066406 L 144.085938 119.367188 L 140.746094 119.367188 Z M 140.746094 111.066406 " fill-opacity="1" fill-rule="nonzero"/><path fill="#dbff22" d="M 172.710938 111.066406 L 176.050781 111.066406 L 176.050781 121.457031 L 172.710938 121.457031 Z M 172.710938 111.066406 " fill-opacity="1" fill-rule="nonzero"/><g clip-path="url(#e30ad7369c)"><path fill="#dbff22" d="M 176.050781 117.113281 L 179.394531 117.113281 L 179.394531 125.414062 L 176.050781 125.414062 Z M 176.050781 117.113281 " fill-opacity="1" fill-rule="nonzero"/></g><g clip-path="url(#410bd2f7b8)"><path fill="#dbff22" d="M 147.789062 125.414062 L 155.113281 125.414062 L 155.113281 128.710938 L 147.789062 128.710938 Z M 147.789062 125.414062 " fill-opacity="1" fill-rule="nonzero"/></g><g clip-path="url(#395ff60ef0)"><path fill="#dbff22" d="M 161.269531 125.414062 L 168.589844 125.414062 L 168.589844 128.710938 L 161.269531 128.710938 Z M 161.269531 125.414062 " fill-opacity="1" fill-rule="nonzero"/></g><path fill="#dbff22" d="M 147.789062 103.316406 L 151.492188 103.316406 L 151.492188 107.164062 L 147.789062 107.164062 Z M 147.789062 103.316406 " fill-opacity="1" fill-rule="nonzero"/><g clip-path="url(#4eda3e2174)"><path fill="#dbff22" d="M 144.085938 99.46875 L 147.789062 99.46875 L 147.789062 103.316406 L 144.085938 103.316406 Z M 144.085938 99.46875 " fill-opacity="1" fill-rule="nonzero"/></g><g clip-path="url(#a95d3b4942)"><path fill="#dbff22" d="M 169.007812 99.46875 L 172.710938 99.46875 L 172.710938 103.316406 L 169.007812 103.316406 Z M 169.007812 99.46875 " fill-opacity="1" fill-rule="nonzero"/></g><path fill="#dbff22" d="M 165.304688 103.316406 L 169.007812 103.316406 L 169.007812 107.164062 L 165.304688 107.164062 Z M 165.304688 103.316406 " fill-opacity="1" fill-rule="nonzero"/><path fill="#dbff22" d="M 144.085938 107.164062 L 144.085938 125.414062 L 147.757812 125.414062 L 147.757812 122.117188 L 168.636719 122.117188 L 168.636719 125.414062 L 172.710938 125.414062 L 172.710938 107.164062 Z M 151.492188 114.226562 L 147.789062 114.226562 L 147.789062 110.382812 L 151.492188 110.382812 Z M 169.007812 114.226562 L 165.304688 114.226562 L 165.304688 110.382812 L 169.007812 110.382812 Z M 169.007812 114.226562 " fill-opacity="1" fill-rule="nonzero"/><path stroke-linecap="butt" transform="matrix(0.655385, -0.00000000000000001, 0.00000000000000001, 0.655385, 78.20475, 144.811187)" fill="none" stroke-linejoin="miter" d="M 8.198813 3.441063 L 16.155735 3.482785 C 20.315983 3.482785 23.969611 4.984766 27.116619 7.976807 C 30.275546 10.974808 31.84905 14.658237 31.84905 19.033054 C 31.84905 23.401911 30.311308 27.144942 27.229863 30.274069 C 24.154379 33.397235 20.417307 34.958818 16.03057 34.958818 L 8.157091 34.958818 C 6.40478 34.958818 5.320017 34.601204 4.890879 33.885975 C 4.551145 33.27803 4.378298 32.360153 4.378298 31.126383 L 4.378298 7.219856 C 4.378298 6.534428 4.396179 6.033768 4.443861 5.723836 C 4.485583 5.407943 4.616708 5.032448 4.849157 4.59735 C 5.248494 3.828479 6.363059 3.441063 8.198813 3.441063 Z M 16.155735 27.34759 C 18.223939 27.34759 20.083534 26.578719 21.740481 25.046937 C 23.409348 23.515155 24.237822 21.584037 24.237822 19.265503 C 24.237822 16.941009 23.427229 14.997971 21.806044 13.436388 C 20.190818 11.874804 18.289501 11.094013 16.114013 11.094013 L 11.989526 11.094013 L 11.989526 27.34759 Z M 43.119866 7.261578 C 43.119866 6.605951 43.143707 6.111251 43.185429 5.783438 C 43.22715 5.455625 43.364236 5.074169 43.590725 4.639072 C 43.990061 3.870201 45.110587 3.482785 46.940381 3.482785 C 48.948982 3.482785 50.14103 4.013246 50.510565 5.068209 C 50.659571 5.562909 50.731094 6.307939 50.731094 7.303299 L 50.731094 31.221747 C 50.731094 31.907175 50.713213 32.407835 50.671492 32.723728 C 50.62977 33.039621 50.492684 33.409156 50.260235 33.832333 C 49.854939 34.613124 48.734413 35.00054 46.898659 35.00054 C 44.896018 35.00054 43.72185 34.452198 43.370196 33.361474 C 43.203309 32.908495 43.119866 32.175386 43.119866 31.168105 Z M 63.116475 30.572081 C 62.365485 29.654204 61.98999 28.831691 61.98999 28.104541 C 61.98999 27.365471 62.609855 26.399912 63.849585 25.195943 C 64.564814 24.510516 65.321764 24.164822 66.120437 24.164822 C 66.925069 24.164822 68.039634 24.886011 69.476053 26.316469 C 69.875389 26.799248 70.447572 27.264147 71.186642 27.717125 C 71.937632 28.158183 72.62902 28.372752 73.266766 28.372752 C 75.925033 28.372752 77.254167 27.287988 77.254167 25.1125 C 77.254167 24.450913 76.890593 23.902571 76.163443 23.461513 C 75.436294 23.014495 74.524377 22.686682 73.433653 22.484034 C 72.342929 22.281385 71.168761 21.959532 69.90519 21.518475 C 68.647579 21.071457 67.473411 20.546955 66.382687 19.944971 C 65.297923 19.342987 64.386007 18.389348 63.652897 17.090015 C 62.925747 15.790683 62.556213 14.223139 62.556213 12.387385 C 62.556213 9.860243 63.497931 7.660914 65.369446 5.783438 C 67.246922 3.900002 69.803866 2.958284 73.046237 2.958284 C 74.768747 2.958284 76.33629 3.184773 77.748867 3.631791 C 79.167405 4.072849 80.150844 4.525827 80.699187 4.984766 L 81.77799 5.807279 C 82.672026 6.635752 83.113084 7.339061 83.113084 7.917204 C 83.113084 8.483427 82.76739 9.270179 82.076002 10.27746 C 81.104483 11.713878 80.103163 12.429107 79.072041 12.429107 C 78.464096 12.429107 77.719066 12.143015 76.83695 11.570832 C 76.747547 11.505269 76.5747 11.362224 76.33033 11.135734 C 76.09192 10.909245 75.871391 10.718518 75.668743 10.569512 C 75.066759 10.199977 74.303848 10.015209 73.37405 10.015209 C 72.438292 10.015209 71.669421 10.235738 71.049556 10.688716 C 70.435651 11.129774 70.125719 11.743679 70.125719 12.536391 C 70.125719 13.317183 70.489294 13.954929 71.222403 14.443668 C 71.949553 14.932408 72.855509 15.266182 73.952194 15.444989 C 75.042918 15.611876 76.229006 15.874126 77.516418 16.231741 C 78.80383 16.589355 79.995878 17.024453 81.086602 17.542994 C 82.177326 18.061535 83.089243 18.955571 83.816393 20.231063 C 84.549502 21.500594 84.919037 23.074098 84.919037 24.945613 C 84.919037 26.805209 84.543542 28.444275 83.798512 29.868772 C 83.053482 31.28135 82.081963 32.378034 80.877994 33.152865 C 78.5535 34.672727 76.074039 35.429678 73.433653 35.429678 C 72.086638 35.429678 70.805186 35.268751 69.601218 34.934977 C 68.397249 34.607164 67.42573 34.195908 66.68666 33.707168 C 65.166798 32.789291 64.105875 31.901215 63.503891 31.04294 Z M 115.87653 26.745606 L 116.651361 26.179383 C 117.628841 25.6072 118.314269 25.321108 118.713605 25.321108 C 119.601681 25.321108 120.56128 26.125741 121.598362 27.735006 C 122.230147 28.736327 122.54604 29.534999 122.54604 30.136983 C 122.54604 30.738968 122.349352 31.245588 121.955976 31.650885 C 121.56856 32.050221 121.121542 32.407835 120.603001 32.723728 C 120.090421 33.039621 119.595721 33.337633 119.118901 33.623724 C 118.648042 33.909816 117.676523 34.285311 116.210304 34.75021 C 114.756005 35.203188 113.349388 35.429678 111.984493 35.429678 C 110.625558 35.429678 109.248742 35.25087 107.854045 34.893256 C 106.465309 34.535641 105.028891 33.933657 103.550751 33.087303 C 102.078572 32.240948 100.749438 31.209827 99.57527 29.993938 C 98.395143 28.772088 97.429584 27.216465 96.666673 25.309188 C 95.909722 23.401911 95.534227 21.327747 95.534227 19.092656 C 95.534227 16.857566 95.903762 14.825124 96.642832 13.00725 C 97.393822 11.189377 98.347461 9.681436 99.509708 8.495348 C 100.671955 7.303299 102.001089 6.307939 103.491149 5.503307 C 106.304383 3.953644 109.129537 3.178813 111.960652 3.178813 C 113.313626 3.178813 114.678522 3.387421 116.067258 3.810598 C 117.455994 4.221855 118.510957 4.645032 119.226186 5.068209 L 120.263268 5.676154 C 120.775848 5.992046 121.175184 6.248337 121.461276 6.445025 C 122.212266 7.047009 122.587762 7.732437 122.587762 8.495348 C 122.587762 9.246338 122.283789 10.04501 121.681805 10.873484 C 120.56128 12.423147 119.559959 13.197978 118.671883 13.197978 C 118.153342 13.197978 117.420232 12.882085 116.478514 12.2503 C 115.274546 11.27878 113.665281 10.790041 111.656679 10.790041 C 109.797084 10.790041 107.96133 11.433747 106.155377 12.721159 C 105.297102 13.352944 104.575913 14.24102 104.00373 15.391347 C 103.431546 16.535713 103.145455 17.835046 103.145455 19.283384 C 103.145455 20.731723 103.431546 22.031055 104.00373 23.181382 C 104.575913 24.319788 105.309022 25.225745 106.197098 25.887331 C 107.949409 27.144942 109.767283 27.776728 111.656679 27.776728 C 112.544755 27.776728 113.385149 27.663483 114.177861 27.431034 C 114.964613 27.198584 115.536796 26.972095 115.87653 26.745606 Z M 156.292925 18.097296 C 157.991594 20.105897 158.837948 22.358869 158.837948 24.850249 C 158.772386 27.717125 157.788946 30.119103 155.887629 32.062141 C 153.980352 33.993259 151.667778 34.958818 148.949908 34.958818 L 137.63141 34.958818 C 135.628769 34.958818 134.454602 34.410476 134.102948 33.319752 C 133.936061 32.836973 133.852617 32.091942 133.852617 31.084662 L 133.852617 7.219856 C 133.852617 6.534428 133.870498 6.033768 133.91222 5.723836 C 133.953942 5.407943 134.091027 5.032448 134.323476 4.59735 C 134.722813 3.828479 135.837378 3.441063 137.673132 3.441063 L 148.514811 3.441063 C 151.149237 3.441063 153.354527 4.35894 155.130678 6.194695 C 156.996234 8.05429 157.931992 10.28938 157.931992 12.899966 C 157.931992 14.789362 157.38961 16.523793 156.292925 18.097296 Z M 151.22672 24.415152 C 151.22672 23.729724 151.143277 23.187342 150.982351 22.788006 C 150.827384 22.38271 150.565134 22.096618 150.183678 21.929731 C 149.611495 21.697282 148.806863 21.584037 147.769781 21.584037 C 146.744619 21.584037 145.969788 21.381389 145.451247 20.988013 C 144.938666 20.576757 144.682376 19.754243 144.682376 18.508553 C 144.682376 17.262862 144.950586 16.440349 145.481048 16.041013 C 146.01747 15.635717 146.893625 15.433068 148.127395 15.433068 C 149.277722 15.433068 149.963149 15.129096 150.183678 14.527112 C 150.279042 14.211219 150.320764 13.698638 150.320764 12.983409 C 150.320764 12.26222 150.082354 11.76156 149.605535 11.481428 C 149.134676 11.195337 148.419447 11.052291 147.477729 11.052291 L 141.463845 11.052291 L 141.463845 27.34759 L 148.514811 27.34759 C 150.320764 27.34759 151.22672 26.370111 151.22672 24.415152 Z M 184.890163 3.095369 C 189.133854 3.095369 192.811323 4.627151 195.934489 7.696675 C 199.063616 10.760239 200.631159 14.568833 200.631159 19.116497 C 200.631159 23.658201 199.135139 27.526398 196.155018 30.727047 C 193.174898 33.915776 189.503389 35.513121 185.146453 35.513121 C 180.789517 35.513121 177.082247 33.939617 174.024643 30.79261 C 170.972999 27.633682 169.447178 23.87277 169.447178 19.515834 C 169.447178 17.137697 169.882275 14.908567 170.74055 12.840363 C 171.598825 10.760239 172.749151 9.019849 174.185569 7.613232 C 175.616027 6.206615 177.267014 5.10397 179.126609 4.305298 C 180.992165 3.500666 182.911362 3.095369 184.890163 3.095369 Z M 177.058406 19.307225 C 177.058406 21.858208 177.880919 23.932372 179.525946 25.517796 C 181.176932 27.109181 183.024607 27.901893 185.057049 27.901893 C 187.095452 27.901893 188.931206 27.127062 190.558352 25.583359 C 192.197418 24.033696 193.019932 21.959532 193.019932 19.348947 C 193.019932 16.738361 192.191458 14.646317 190.540471 13.066853 C 188.895445 11.493349 187.05373 10.706597 185.015328 10.706597 C 182.982885 10.706597 181.141171 11.499309 179.508065 13.090694 C 177.874959 14.682078 177.058406 16.750282 177.058406 19.307225 Z M 213.952299 3.441063 L 237.870746 3.441063 C 238.782663 3.441063 239.45617 3.554308 239.885308 3.768876 C 240.320405 3.977485 240.606497 4.311258 240.743583 4.776157 C 240.892589 5.229135 240.964112 5.83112 240.964112 6.58211 C 240.964112 7.32118 240.892589 7.917204 240.743583 8.364222 C 240.606497 8.80528 240.362127 9.115213 240.022393 9.28806 C 239.503852 9.54435 238.770743 9.669515 237.829025 9.669515 L 229.603892 9.669515 L 229.603892 31.305191 C 229.603892 31.960817 229.586011 32.449557 229.544289 32.76545 C 229.502568 33.081342 229.371442 33.444917 229.156874 33.868094 C 228.942305 34.279351 228.56681 34.571403 228.018468 34.75021 C 227.476086 34.917097 226.754897 35.00054 225.866821 35.00054 C 224.978745 35.00054 224.269476 34.917097 223.739015 34.75021 C 223.214513 34.571403 222.839018 34.279351 222.624449 33.868094 C 222.409881 33.444917 222.278755 33.069422 222.237034 32.741609 C 222.195312 32.413795 222.171471 31.919095 222.171471 31.263469 L 222.171471 9.669515 L 213.910577 9.669515 C 212.9927 9.669515 212.319192 9.562231 211.884095 9.353622 C 211.460918 9.139054 211.168866 8.79932 211.02582 8.346342 C 210.882774 7.881443 210.817212 7.279458 210.817212 6.540389 C 210.817212 5.789398 210.882774 5.193374 211.02582 4.752316 C 211.168866 4.305298 211.419196 3.995366 211.77085 3.822519 C 212.283431 3.566228 213.01058 3.441063 213.952299 3.441063 Z M 213.952299 3.441063 " stroke="#f7f9f7" stroke-width="1.72" stroke-opacity="1" stroke-miterlimit="4"/><g fill="#dbff22" fill-opacity="1"><g transform="translate(122.488677, 190.406395)"><g><path d="M 0.515625 -1.03125 C 0.335938 -1.238281 0.25 -1.425781 0.25 -1.59375 C 0.25 -1.769531 0.394531 -2 0.6875 -2.28125 C 0.851562 -2.4375 1.023438 -2.515625 1.203125 -2.515625 C 1.390625 -2.515625 1.648438 -2.347656 1.984375 -2.015625 C 2.078125 -1.898438 2.210938 -1.789062 2.390625 -1.6875 C 2.566406 -1.59375 2.726562 -1.546875 2.875 -1.546875 C 3.488281 -1.546875 3.796875 -1.796875 3.796875 -2.296875 C 3.796875 -2.453125 3.710938 -2.582031 3.546875 -2.6875 C 3.378906 -2.789062 3.164062 -2.863281 2.90625 -2.90625 C 2.65625 -2.957031 2.382812 -3.035156 2.09375 -3.140625 C 1.800781 -3.242188 1.523438 -3.363281 1.265625 -3.5 C 1.015625 -3.632812 0.800781 -3.851562 0.625 -4.15625 C 0.457031 -4.46875 0.375 -4.835938 0.375 -5.265625 C 0.375 -5.847656 0.59375 -6.359375 1.03125 -6.796875 C 1.46875 -7.234375 2.0625 -7.453125 2.8125 -7.453125 C 3.21875 -7.453125 3.582031 -7.398438 3.90625 -7.296875 C 4.238281 -7.191406 4.46875 -7.085938 4.59375 -6.984375 L 4.84375 -6.796875 C 5.050781 -6.597656 5.15625 -6.429688 5.15625 -6.296875 C 5.15625 -6.160156 5.078125 -5.976562 4.921875 -5.75 C 4.691406 -5.414062 4.457031 -5.25 4.21875 -5.25 C 4.082031 -5.25 3.910156 -5.316406 3.703125 -5.453125 C 3.679688 -5.460938 3.640625 -5.492188 3.578125 -5.546875 C 3.523438 -5.597656 3.476562 -5.644531 3.4375 -5.6875 C 3.289062 -5.769531 3.109375 -5.8125 2.890625 -5.8125 C 2.671875 -5.8125 2.488281 -5.757812 2.34375 -5.65625 C 2.207031 -5.550781 2.140625 -5.40625 2.140625 -5.21875 C 2.140625 -5.039062 2.222656 -4.894531 2.390625 -4.78125 C 2.566406 -4.664062 2.78125 -4.585938 3.03125 -4.546875 C 3.28125 -4.503906 3.554688 -4.441406 3.859375 -4.359375 C 4.160156 -4.273438 4.4375 -4.171875 4.6875 -4.046875 C 4.9375 -3.929688 5.144531 -3.722656 5.3125 -3.421875 C 5.488281 -3.128906 5.578125 -2.765625 5.578125 -2.328125 C 5.578125 -1.898438 5.488281 -1.519531 5.3125 -1.1875 C 5.144531 -0.863281 4.921875 -0.613281 4.640625 -0.4375 C 4.097656 -0.0820312 3.519531 0.09375 2.90625 0.09375 C 2.59375 0.09375 2.296875 0.0546875 2.015625 -0.015625 C 1.734375 -0.0859375 1.507812 -0.179688 1.34375 -0.296875 C 0.988281 -0.515625 0.738281 -0.722656 0.59375 -0.921875 Z M 0.515625 -1.03125 "/></g></g></g><g fill="#dbff22" fill-opacity="1"><g transform="translate(131.173925, 190.406395)"><g><path d="M 3.84375 -7.421875 C 4.820312 -7.421875 5.675781 -7.0625 6.40625 -6.34375 C 7.132812 -5.632812 7.5 -4.75 7.5 -3.6875 C 7.5 -2.632812 7.148438 -1.734375 6.453125 -0.984375 C 5.765625 -0.242188 4.910156 0.125 3.890625 0.125 C 2.878906 0.125 2.019531 -0.238281 1.3125 -0.96875 C 0.601562 -1.707031 0.25 -2.582031 0.25 -3.59375 C 0.25 -4.15625 0.347656 -4.675781 0.546875 -5.15625 C 0.742188 -5.632812 1.007812 -6.035156 1.34375 -6.359375 C 1.675781 -6.691406 2.0625 -6.953125 2.5 -7.140625 C 2.9375 -7.328125 3.382812 -7.421875 3.84375 -7.421875 Z M 2.015625 -3.65625 C 2.015625 -3.0625 2.207031 -2.578125 2.59375 -2.203125 C 2.976562 -1.835938 3.40625 -1.65625 3.875 -1.65625 C 4.351562 -1.65625 4.78125 -1.832031 5.15625 -2.1875 C 5.539062 -2.550781 5.734375 -3.035156 5.734375 -3.640625 C 5.734375 -4.242188 5.539062 -4.726562 5.15625 -5.09375 C 4.769531 -5.46875 4.335938 -5.65625 3.859375 -5.65625 C 3.390625 -5.65625 2.960938 -5.46875 2.578125 -5.09375 C 2.203125 -4.726562 2.015625 -4.25 2.015625 -3.65625 Z M 2.015625 -3.65625 "/></g></g></g><g fill="#dbff22" fill-opacity="1"><g transform="translate(141.777874, 190.406395)"><g><path d="M 2.171875 -1.484375 L 4.890625 -1.484375 C 5.109375 -1.484375 5.265625 -1.457031 5.359375 -1.40625 C 5.460938 -1.351562 5.53125 -1.273438 5.5625 -1.171875 C 5.601562 -1.066406 5.625 -0.925781 5.625 -0.75 C 5.625 -0.570312 5.601562 -0.425781 5.5625 -0.3125 C 5.53125 -0.207031 5.476562 -0.132812 5.40625 -0.09375 C 5.269531 -0.03125 5.09375 0 4.875 0 L 1.28125 0 C 0.8125 0 0.535156 -0.125 0.453125 -0.375 C 0.421875 -0.488281 0.40625 -0.660156 0.40625 -0.890625 L 0.40625 -6.453125 C 0.40625 -6.609375 0.410156 -6.722656 0.421875 -6.796875 C 0.429688 -6.867188 0.460938 -6.957031 0.515625 -7.0625 C 0.609375 -7.238281 0.867188 -7.328125 1.296875 -7.328125 C 1.753906 -7.328125 2.03125 -7.203125 2.125 -6.953125 C 2.15625 -6.847656 2.171875 -6.675781 2.171875 -6.4375 Z M 2.171875 -1.484375 "/></g></g></g><g fill="#dbff22" fill-opacity="1"><g transform="translate(150.503098, 190.406395)"><g><path d="M 5.1875 -7.0625 C 5.257812 -7.164062 5.359375 -7.238281 5.484375 -7.28125 C 5.609375 -7.320312 5.765625 -7.34375 5.953125 -7.34375 C 6.140625 -7.34375 6.289062 -7.320312 6.40625 -7.28125 C 6.519531 -7.25 6.609375 -7.207031 6.671875 -7.15625 C 6.734375 -7.113281 6.773438 -7.046875 6.796875 -6.953125 C 6.835938 -6.847656 6.859375 -6.675781 6.859375 -6.4375 L 6.859375 -3.421875 C 6.859375 -2.535156 6.585938 -1.734375 6.046875 -1.015625 C 5.773438 -0.679688 5.425781 -0.40625 5 -0.1875 C 4.582031 0.0195312 4.117188 0.125 3.609375 0.125 C 3.097656 0.125 2.632812 0.0195312 2.21875 -0.1875 C 1.800781 -0.40625 1.460938 -0.691406 1.203125 -1.046875 C 0.671875 -1.742188 0.40625 -2.539062 0.40625 -3.4375 L 0.40625 -6.453125 C 0.40625 -6.609375 0.410156 -6.722656 0.421875 -6.796875 C 0.429688 -6.878906 0.460938 -6.96875 0.515625 -7.0625 C 0.566406 -7.164062 0.65625 -7.238281 0.78125 -7.28125 C 0.90625 -7.320312 1.070312 -7.34375 1.28125 -7.34375 C 1.5 -7.34375 1.671875 -7.320312 1.796875 -7.28125 C 1.921875 -7.238281 2.007812 -7.164062 2.0625 -7.0625 C 2.144531 -6.914062 2.1875 -6.707031 2.1875 -6.4375 L 2.1875 -3.4375 C 2.1875 -3.03125 2.285156 -2.644531 2.484375 -2.28125 C 2.578125 -2.09375 2.722656 -1.941406 2.921875 -1.828125 C 3.128906 -1.710938 3.367188 -1.65625 3.640625 -1.65625 C 4.128906 -1.65625 4.492188 -1.832031 4.734375 -2.1875 C 4.972656 -2.550781 5.09375 -2.972656 5.09375 -3.453125 L 5.09375 -6.515625 C 5.09375 -6.773438 5.125 -6.957031 5.1875 -7.0625 Z M 5.1875 -7.0625 "/></g></g></g><g fill="#dbff22" fill-opacity="1"><g transform="translate(160.617377, 190.406395)"><g><path d="M 0.875 -7.34375 L 6.4375 -7.34375 C 6.65625 -7.34375 6.8125 -7.316406 6.90625 -7.265625 C 7.007812 -7.210938 7.078125 -7.132812 7.109375 -7.03125 C 7.140625 -6.925781 7.15625 -6.785156 7.15625 -6.609375 C 7.15625 -6.429688 7.140625 -6.289062 7.109375 -6.1875 C 7.078125 -6.09375 7.019531 -6.023438 6.9375 -5.984375 C 6.820312 -5.921875 6.65625 -5.890625 6.4375 -5.890625 L 4.515625 -5.890625 L 4.515625 -0.859375 C 4.515625 -0.703125 4.507812 -0.585938 4.5 -0.515625 C 4.488281 -0.441406 4.457031 -0.359375 4.40625 -0.265625 C 4.363281 -0.171875 4.273438 -0.101562 4.140625 -0.0625 C 4.015625 -0.0195312 3.847656 0 3.640625 0 C 3.441406 0 3.28125 -0.0195312 3.15625 -0.0625 C 3.03125 -0.101562 2.941406 -0.171875 2.890625 -0.265625 C 2.835938 -0.359375 2.804688 -0.441406 2.796875 -0.515625 C 2.796875 -0.597656 2.796875 -0.71875 2.796875 -0.875 L 2.796875 -5.890625 L 0.875 -5.890625 C 0.65625 -5.890625 0.492188 -5.914062 0.390625 -5.96875 C 0.296875 -6.019531 0.234375 -6.097656 0.203125 -6.203125 C 0.171875 -6.304688 0.15625 -6.441406 0.15625 -6.609375 C 0.15625 -6.785156 0.171875 -6.925781 0.203125 -7.03125 C 0.234375 -7.132812 0.289062 -7.207031 0.375 -7.25 C 0.488281 -7.3125 0.65625 -7.34375 0.875 -7.34375 Z M 0.875 -7.34375 "/></g></g></g><g fill="#dbff22" fill-opacity="1"><g transform="translate(170.78163, 190.406395)"><g><path d="M 0.40625 -6.453125 C 0.40625 -6.609375 0.410156 -6.722656 0.421875 -6.796875 C 0.429688 -6.867188 0.460938 -6.957031 0.515625 -7.0625 C 0.609375 -7.238281 0.867188 -7.328125 1.296875 -7.328125 C 1.753906 -7.328125 2.03125 -7.203125 2.125 -6.953125 C 2.15625 -6.847656 2.171875 -6.675781 2.171875 -6.4375 L 2.171875 -0.875 C 2.171875 -0.71875 2.164062 -0.601562 2.15625 -0.53125 C 2.144531 -0.457031 2.113281 -0.367188 2.0625 -0.265625 C 1.96875 -0.0859375 1.707031 0 1.28125 0 C 0.8125 0 0.535156 -0.125 0.453125 -0.375 C 0.421875 -0.488281 0.40625 -0.660156 0.40625 -0.890625 Z M 0.40625 -6.453125 "/></g></g></g><g fill="#dbff22" fill-opacity="1"><g transform="translate(176.209079, 190.406395)"><g><path d="M 3.84375 -7.421875 C 4.820312 -7.421875 5.675781 -7.0625 6.40625 -6.34375 C 7.132812 -5.632812 7.5 -4.75 7.5 -3.6875 C 7.5 -2.632812 7.148438 -1.734375 6.453125 -0.984375 C 5.765625 -0.242188 4.910156 0.125 3.890625 0.125 C 2.878906 0.125 2.019531 -0.238281 1.3125 -0.96875 C 0.601562 -1.707031 0.25 -2.582031 0.25 -3.59375 C 0.25 -4.15625 0.347656 -4.675781 0.546875 -5.15625 C 0.742188 -5.632812 1.007812 -6.035156 1.34375 -6.359375 C 1.675781 -6.691406 2.0625 -6.953125 2.5 -7.140625 C 2.9375 -7.328125 3.382812 -7.421875 3.84375 -7.421875 Z M 2.015625 -3.65625 C 2.015625 -3.0625 2.207031 -2.578125 2.59375 -2.203125 C 2.976562 -1.835938 3.40625 -1.65625 3.875 -1.65625 C 4.351562 -1.65625 4.78125 -1.832031 5.15625 -2.1875 C 5.539062 -2.550781 5.734375 -3.035156 5.734375 -3.640625 C 5.734375 -4.242188 5.539062 -4.726562 5.15625 -5.09375 C 4.769531 -5.46875 4.335938 -5.65625 3.859375 -5.65625 C 3.390625 -5.65625 2.960938 -5.46875 2.578125 -5.09375 C 2.203125 -4.726562 2.015625 -4.25 2.015625 -3.65625 Z M 2.015625 -3.65625 "/></g></g></g><g fill="#dbff22" fill-opacity="1"><g transform="translate(186.813027, 190.406395)"><g><path d="M 5.140625 -7.015625 C 5.203125 -7.140625 5.296875 -7.21875 5.421875 -7.25 C 5.546875 -7.289062 5.703125 -7.3125 5.890625 -7.3125 C 6.085938 -7.3125 6.242188 -7.296875 6.359375 -7.265625 C 6.472656 -7.234375 6.554688 -7.191406 6.609375 -7.140625 C 6.671875 -7.097656 6.710938 -7.03125 6.734375 -6.9375 C 6.773438 -6.832031 6.796875 -6.664062 6.796875 -6.4375 L 6.796875 -0.875 C 6.796875 -0.71875 6.789062 -0.601562 6.78125 -0.53125 C 6.769531 -0.457031 6.738281 -0.367188 6.6875 -0.265625 C 6.59375 -0.0859375 6.332031 0 5.90625 0 C 5.644531 0 5.460938 -0.0195312 5.359375 -0.0625 C 5.265625 -0.101562 5.1875 -0.164062 5.125 -0.25 C 3.625 -2.25 2.632812 -3.554688 2.15625 -4.171875 L 2.15625 -0.875 C 2.15625 -0.71875 2.148438 -0.601562 2.140625 -0.53125 C 2.128906 -0.457031 2.097656 -0.367188 2.046875 -0.265625 C 1.953125 -0.0859375 1.691406 0 1.265625 0 C 0.859375 0 0.609375 -0.0859375 0.515625 -0.265625 C 0.460938 -0.367188 0.429688 -0.457031 0.421875 -0.53125 C 0.410156 -0.613281 0.40625 -0.734375 0.40625 -0.890625 L 0.40625 -6.46875 C 0.40625 -6.71875 0.4375 -6.898438 0.5 -7.015625 C 0.5625 -7.140625 0.65625 -7.21875 0.78125 -7.25 C 0.90625 -7.289062 1.066406 -7.3125 1.265625 -7.3125 C 1.460938 -7.3125 1.617188 -7.289062 1.734375 -7.25 C 1.859375 -7.21875 1.941406 -7.179688 1.984375 -7.140625 C 2.015625 -7.117188 2.09375 -7.03125 2.21875 -6.875 C 3.625 -4.96875 4.566406 -3.707031 5.046875 -3.09375 L 5.046875 -6.46875 C 5.046875 -6.71875 5.078125 -6.898438 5.140625 -7.015625 Z M 5.140625 -7.015625 "/></g></g></g><g fill="#f7f9f7" fill-opacity="1"><g transform="translate(136.85789, 91.086483)"><g/></g></g><g fill="#f7f9f7" fill-opacity="1"><g transform="translate(139.208221, 89.050592)"><g><path d="M 2.59375 -3.390625 L 2.65625 -3.546875 C 2.757812 -3.742188 2.84375 -3.859375 2.90625 -3.890625 C 3.050781 -3.984375 3.273438 -3.953125 3.578125 -3.796875 C 3.785156 -3.703125 3.914062 -3.601562 3.96875 -3.5 C 4.03125 -3.40625 4.050781 -3.304688 4.03125 -3.203125 C 4.007812 -3.109375 3.96875 -3.007812 3.90625 -2.90625 C 3.851562 -2.8125 3.804688 -2.710938 3.765625 -2.609375 C 3.722656 -2.515625 3.609375 -2.363281 3.421875 -2.15625 C 3.234375 -1.945312 3.03125 -1.773438 2.8125 -1.640625 C 2.601562 -1.503906 2.367188 -1.398438 2.109375 -1.328125 C 1.859375 -1.253906 1.570312 -1.207031 1.25 -1.1875 C 0.9375 -1.175781 0.628906 -1.207031 0.328125 -1.28125 C 0.0234375 -1.363281 -0.28125 -1.519531 -0.59375 -1.75 C -0.90625 -1.988281 -1.164062 -2.28125 -1.375 -2.625 C -1.59375 -2.976562 -1.734375 -3.332031 -1.796875 -3.6875 C -1.859375 -4.039062 -1.851562 -4.367188 -1.78125 -4.671875 C -1.707031 -4.984375 -1.59375 -5.28125 -1.4375 -5.5625 C -1.132812 -6.082031 -0.765625 -6.476562 -0.328125 -6.75 C -0.109375 -6.882812 0.125 -6.984375 0.375 -7.046875 C 0.632812 -7.117188 0.847656 -7.148438 1.015625 -7.140625 L 1.234375 -7.15625 C 1.335938 -7.15625 1.425781 -7.160156 1.5 -7.171875 C 1.675781 -7.128906 1.800781 -7.046875 1.875 -6.921875 C 1.945312 -6.804688 1.976562 -6.65625 1.96875 -6.46875 C 1.9375 -6.113281 1.847656 -5.894531 1.703125 -5.8125 C 1.628906 -5.757812 1.484375 -5.738281 1.265625 -5.75 C 0.984375 -5.78125 0.6875 -5.695312 0.375 -5.5 C 0.0820312 -5.320312 -0.148438 -5.046875 -0.328125 -4.671875 C -0.390625 -4.484375 -0.410156 -4.269531 -0.390625 -4.03125 C -0.378906 -3.789062 -0.300781 -3.554688 -0.15625 -3.328125 C -0.0078125 -3.097656 0.160156 -2.921875 0.359375 -2.796875 C 0.566406 -2.671875 0.769531 -2.601562 0.96875 -2.59375 C 1.375 -2.5625 1.726562 -2.632812 2.03125 -2.8125 C 2.164062 -2.90625 2.285156 -3.003906 2.390625 -3.109375 C 2.492188 -3.222656 2.5625 -3.316406 2.59375 -3.390625 Z M 2.59375 -3.390625 "/></g></g></g><g fill="#f7f9f7" fill-opacity="1"><g transform="translate(144.665723, 85.763059)"><g><path d="M 0.890625 -6.625 C 1.628906 -6.894531 2.367188 -6.859375 3.109375 -6.515625 C 3.847656 -6.171875 4.359375 -5.601562 4.640625 -4.8125 C 4.929688 -4.019531 4.914062 -3.25 4.59375 -2.5 C 4.28125 -1.75 3.738281 -1.234375 2.96875 -0.953125 C 2.207031 -0.679688 1.457031 -0.722656 0.71875 -1.078125 C -0.0078125 -1.441406 -0.507812 -2.003906 -0.78125 -2.765625 C -0.9375 -3.191406 -1.003906 -3.613281 -0.984375 -4.03125 C -0.960938 -4.445312 -0.867188 -4.820312 -0.703125 -5.15625 C -0.535156 -5.488281 -0.3125 -5.785156 -0.03125 -6.046875 C 0.238281 -6.304688 0.546875 -6.5 0.890625 -6.625 Z M 0.53125 -3.28125 C 0.6875 -2.84375 0.960938 -2.535156 1.359375 -2.359375 C 1.753906 -2.179688 2.128906 -2.15625 2.484375 -2.28125 C 2.835938 -2.40625 3.109375 -2.65625 3.296875 -3.03125 C 3.484375 -3.414062 3.492188 -3.832031 3.328125 -4.28125 C 3.160156 -4.738281 2.882812 -5.050781 2.5 -5.21875 C 2.113281 -5.394531 1.742188 -5.421875 1.390625 -5.296875 C 1.046875 -5.171875 0.773438 -4.914062 0.578125 -4.53125 C 0.390625 -4.144531 0.375 -3.726562 0.53125 -3.28125 Z M 0.53125 -3.28125 "/></g></g></g><g fill="#f7f9f7" fill-opacity="1"><g transform="translate(151.410731, 83.473519)"><g><path d="M 3.328125 -6.109375 C 3.367188 -6.210938 3.4375 -6.285156 3.53125 -6.328125 C 3.625 -6.378906 3.742188 -6.414062 3.890625 -6.4375 C 4.046875 -6.457031 4.171875 -6.457031 4.265625 -6.4375 C 4.359375 -6.425781 4.429688 -6.398438 4.484375 -6.359375 C 4.535156 -6.328125 4.578125 -6.28125 4.609375 -6.21875 C 4.648438 -6.132812 4.6875 -6 4.71875 -5.8125 L 5.296875 -1.421875 C 5.316406 -1.296875 5.328125 -1.203125 5.328125 -1.140625 C 5.328125 -1.085938 5.3125 -1.015625 5.28125 -0.921875 C 5.21875 -0.765625 5.019531 -0.664062 4.6875 -0.625 C 4.488281 -0.59375 4.34375 -0.585938 4.25 -0.609375 C 4.164062 -0.628906 4.09375 -0.675781 4.03125 -0.75 C 2.632812 -2.164062 1.71875 -3.097656 1.28125 -3.546875 L 1.625 -0.9375 C 1.644531 -0.8125 1.648438 -0.71875 1.640625 -0.65625 C 1.640625 -0.59375 1.625 -0.519531 1.59375 -0.4375 C 1.539062 -0.28125 1.34375 -0.179688 1 -0.140625 C 0.675781 -0.0859375 0.46875 -0.128906 0.375 -0.265625 C 0.320312 -0.347656 0.285156 -0.421875 0.265625 -0.484375 C 0.253906 -0.546875 0.238281 -0.640625 0.21875 -0.765625 L -0.375 -5.171875 C -0.394531 -5.378906 -0.382812 -5.53125 -0.34375 -5.625 C -0.3125 -5.726562 -0.242188 -5.800781 -0.140625 -5.84375 C -0.0351562 -5.894531 0.0859375 -5.929688 0.234375 -5.953125 C 0.390625 -5.972656 0.515625 -5.972656 0.609375 -5.953125 C 0.703125 -5.929688 0.773438 -5.90625 0.828125 -5.875 C 0.847656 -5.863281 0.921875 -5.800781 1.046875 -5.6875 C 2.359375 -4.3125 3.234375 -3.410156 3.671875 -2.984375 L 3.3125 -5.65625 C 3.289062 -5.863281 3.296875 -6.015625 3.328125 -6.109375 Z M 3.328125 -6.109375 "/></g></g></g><g fill="#f7f9f7" fill-opacity="1"><g transform="translate(158.085358, 82.712891)"><g><path d="M 1.828125 -1.3125 L 4.28125 -1.15625 C 4.40625 -1.144531 4.492188 -1.128906 4.546875 -1.109375 C 4.609375 -1.097656 4.675781 -1.070312 4.75 -1.03125 C 4.894531 -0.945312 4.957031 -0.734375 4.9375 -0.390625 C 4.914062 -0.015625 4.800781 0.195312 4.59375 0.25 C 4.5 0.269531 4.359375 0.273438 4.171875 0.265625 L 1.03125 0.0625 C 0.65625 0.0390625 0.441406 -0.0664062 0.390625 -0.265625 C 0.359375 -0.367188 0.347656 -0.515625 0.359375 -0.703125 L 0.640625 -5.125 C 0.660156 -5.394531 0.722656 -5.570312 0.828125 -5.65625 C 0.941406 -5.75 1.140625 -5.789062 1.421875 -5.78125 L 4.5625 -5.578125 C 4.6875 -5.566406 4.773438 -5.554688 4.828125 -5.546875 C 4.890625 -5.535156 4.960938 -5.507812 5.046875 -5.46875 C 5.179688 -5.375 5.238281 -5.160156 5.21875 -4.828125 C 5.195312 -4.453125 5.082031 -4.238281 4.875 -4.1875 C 4.78125 -4.164062 4.640625 -4.160156 4.453125 -4.171875 L 2.015625 -4.328125 L 1.96875 -3.53125 L 3.546875 -3.421875 C 3.671875 -3.421875 3.765625 -3.410156 3.828125 -3.390625 C 3.890625 -3.378906 3.957031 -3.347656 4.03125 -3.296875 C 4.164062 -3.222656 4.222656 -3.015625 4.203125 -2.671875 C 4.179688 -2.304688 4.066406 -2.09375 3.859375 -2.03125 C 3.765625 -2 3.625 -1.992188 3.4375 -2.015625 L 1.875 -2.109375 Z M 1.828125 -1.3125 "/></g></g></g><g fill="#f7f9f7" fill-opacity="1"><g transform="translate(164.144332, 83.17765)"><g><path d="M 4.25 -0.484375 L 4.40625 -0.546875 C 4.613281 -0.597656 4.753906 -0.613281 4.828125 -0.59375 C 4.984375 -0.550781 5.117188 -0.363281 5.234375 -0.03125 C 5.285156 0.164062 5.296875 0.320312 5.265625 0.4375 C 5.242188 0.550781 5.191406 0.632812 5.109375 0.6875 C 5.023438 0.738281 4.925781 0.78125 4.8125 0.8125 C 4.707031 0.84375 4.601562 0.875 4.5 0.90625 C 4.40625 0.9375 4.210938 0.957031 3.921875 0.96875 C 3.640625 0.988281 3.375 0.960938 3.125 0.890625 C 2.882812 0.828125 2.648438 0.726562 2.421875 0.59375 C 2.191406 0.46875 1.960938 0.296875 1.734375 0.078125 C 1.503906 -0.140625 1.3125 -0.382812 1.15625 -0.65625 C 1 -0.925781 0.898438 -1.253906 0.859375 -1.640625 C 0.816406 -2.023438 0.847656 -2.414062 0.953125 -2.8125 C 1.054688 -3.21875 1.210938 -3.5625 1.421875 -3.84375 C 1.640625 -4.132812 1.878906 -4.363281 2.140625 -4.53125 C 2.410156 -4.695312 2.703125 -4.816406 3.015625 -4.890625 C 3.597656 -5.035156 4.140625 -5.039062 4.640625 -4.90625 C 4.878906 -4.84375 5.113281 -4.738281 5.34375 -4.59375 C 5.582031 -4.457031 5.753906 -4.328125 5.859375 -4.203125 L 6.015625 -4.0625 C 6.097656 -3.988281 6.164062 -3.925781 6.21875 -3.875 C 6.3125 -3.71875 6.335938 -3.570312 6.296875 -3.4375 C 6.265625 -3.300781 6.171875 -3.175781 6.015625 -3.0625 C 5.753906 -2.84375 5.546875 -2.753906 5.390625 -2.796875 C 5.296875 -2.828125 5.175781 -2.914062 5.03125 -3.0625 C 4.863281 -3.289062 4.597656 -3.453125 4.234375 -3.546875 C 3.898438 -3.640625 3.535156 -3.609375 3.140625 -3.453125 C 2.960938 -3.390625 2.796875 -3.265625 2.640625 -3.078125 C 2.484375 -2.898438 2.367188 -2.679688 2.296875 -2.421875 C 2.234375 -2.160156 2.222656 -1.910156 2.265625 -1.671875 C 2.316406 -1.441406 2.410156 -1.25 2.546875 -1.09375 C 2.796875 -0.78125 3.09375 -0.578125 3.4375 -0.484375 C 3.601562 -0.441406 3.757812 -0.421875 3.90625 -0.421875 C 4.0625 -0.429688 4.175781 -0.453125 4.25 -0.484375 Z M 4.25 -0.484375 "/></g></g></g><g fill="#f7f9f7" fill-opacity="1"><g transform="translate(170.299072, 84.861519)"><g><path d="M 3.21875 -4.953125 L 7.21875 -2.984375 C 7.363281 -2.910156 7.460938 -2.835938 7.515625 -2.765625 C 7.578125 -2.703125 7.597656 -2.625 7.578125 -2.53125 C 7.566406 -2.445312 7.53125 -2.34375 7.46875 -2.21875 C 7.414062 -2.09375 7.351562 -2 7.28125 -1.9375 C 7.21875 -1.875 7.148438 -1.84375 7.078125 -1.84375 C 6.972656 -1.84375 6.84375 -1.882812 6.6875 -1.96875 L 5.3125 -2.640625 L 3.53125 0.984375 C 3.476562 1.085938 3.4375 1.164062 3.40625 1.21875 C 3.375 1.269531 3.320312 1.320312 3.25 1.375 C 3.1875 1.425781 3.101562 1.441406 3 1.421875 C 2.894531 1.410156 2.765625 1.367188 2.609375 1.296875 C 2.460938 1.222656 2.351562 1.148438 2.28125 1.078125 C 2.207031 1.003906 2.164062 0.921875 2.15625 0.828125 C 2.15625 0.742188 2.164062 0.671875 2.1875 0.609375 C 2.21875 0.546875 2.257812 0.460938 2.3125 0.359375 L 4.078125 -3.25 L 2.703125 -3.921875 C 2.546875 -4.003906 2.441406 -4.078125 2.390625 -4.140625 C 2.335938 -4.203125 2.316406 -4.273438 2.328125 -4.359375 C 2.347656 -4.453125 2.382812 -4.5625 2.4375 -4.6875 C 2.5 -4.8125 2.5625 -4.90625 2.625 -4.96875 C 2.695312 -5.03125 2.765625 -5.066406 2.828125 -5.078125 C 2.929688 -5.078125 3.0625 -5.035156 3.21875 -4.953125 Z M 3.21875 -4.953125 "/></g></g></g><g fill="#f7f9f7" fill-opacity="1"><g transform="translate(176.342617, 87.984776)"><g><path d="M 2.234375 -0.0625 L 4.1875 1.4375 C 4.289062 1.507812 4.363281 1.566406 4.40625 1.609375 C 4.445312 1.648438 4.488281 1.71875 4.53125 1.8125 C 4.601562 1.945312 4.53125 2.148438 4.3125 2.421875 C 4.082031 2.722656 3.875 2.84375 3.6875 2.78125 C 3.59375 2.738281 3.472656 2.660156 3.328125 2.546875 L 0.8125 0.625 C 0.519531 0.394531 0.410156 0.1875 0.484375 0 C 0.503906 -0.101562 0.570312 -0.226562 0.6875 -0.375 L 3.390625 -3.90625 C 3.554688 -4.113281 3.707031 -4.222656 3.84375 -4.234375 C 3.988281 -4.253906 4.171875 -4.175781 4.390625 -4 L 6.890625 -2.078125 C 6.992188 -2.003906 7.066406 -1.945312 7.109375 -1.90625 C 7.160156 -1.875 7.203125 -1.8125 7.234375 -1.71875 C 7.296875 -1.570312 7.226562 -1.367188 7.03125 -1.109375 C 6.800781 -0.804688 6.585938 -0.6875 6.390625 -0.75 C 6.304688 -0.789062 6.191406 -0.867188 6.046875 -0.984375 L 4.09375 -2.46875 L 3.59375 -1.828125 L 4.84375 -0.875 C 4.945312 -0.800781 5.019531 -0.738281 5.0625 -0.6875 C 5.101562 -0.632812 5.144531 -0.566406 5.1875 -0.484375 C 5.257812 -0.335938 5.191406 -0.128906 4.984375 0.140625 C 4.765625 0.421875 4.546875 0.53125 4.328125 0.46875 C 4.234375 0.425781 4.109375 0.351562 3.953125 0.25 L 2.71875 -0.703125 Z M 2.234375 -0.0625 "/></g></g></g></svg>